<svg xmlns="http://www.w3.org/2000/svg" viewBox="0 0 64 64" fill="none">
  <!-- Background circle -->
  <circle cx="32" cy="32" r="32" fill="#fff0f4"/>

  <!-- Nail polish bottle body -->
  <rect x="24" y="28" width="16" height="22" rx="4" fill="#f43f5e"/>

  <!-- Bottle highlight -->
  <rect x="27" y="31" width="4" height="10" rx="2" fill="#fb7185" opacity="0.5"/>

  <!-- Bottle neck -->
  <rect x="27" y="21" width="10" height="8" rx="2" fill="#e11d48"/>

  <!-- Brush handle / cap -->
  <rect x="29" y="12" width="6" height="10" rx="2" fill="#9f1239"/>

  <!-- Sparkle top-right -->
  <path d="M48 10 L49.2 13.5 L52.5 14 L50 16.5 L50.8 20 L48 18 L45.2 20 L46 16.5 L43.5 14 L46.8 13.5 Z" fill="#fb7185" opacity="0.8"/>

  <!-- Sparkle small bottom-left -->
  <path d="M14 42 L14.8 44.3 L17 44.5 L15.3 46.2 L15.8 48.5 L14 47.2 L12.2 48.5 L12.7 46.2 L11 44.5 L13.2 44.3 Z" fill="#fda4af" opacity="0.7"/>
</svg>
